# xmcd CD database file
#
# Track frame offsets:
#	150
#	19350
#	38451
#	64182
#	86444
#	110550
#	134184
#	152736
#	189520
#	208402
#	229039
#
# Disc length: 3319 seconds
#
# Revision: 0
# Processed by: cddbd v1.5.2PL0 Copyright (c) Steve Scherf et al.
# Submitted via: CDex 1.50beta10
#
DISCID=9a0cf50b
DTITLE=Stevens, Corey - Bring on the Blues
DYEAR=2003
DGENRE=Blues
TTITLE0=Lonesome Road Blues
TTITLE1=Hang On
TTITLE2=Real Love
TTITLE3=You're so Evil
TTITLE4=Crazy and Blue
TTITLE5=My Love For You Has Died
TTITLE6=Triple Jack
TTITLE7=My Blues are Truning Red
TTITLE8=Something I Can't Do
TTITLE9=You're Ganna Miss Me
TTITLE10=Getaway (Featuring Canned Heat)
EXTD=YEAR: 2003
EXTT0=
EXTT1=
EXTT2=
EXTT3=
EXTT4=
EXTT5=
EXTT6=
EXTT7=
EXTT8=
EXTT9=
EXTT10=
PLAYORDER=
